<?xml version="1.0" encoding="UTF-8"?>
<svg width="79px" height="44px" viewBox="0 0 79 44" version="1.1" xmlns="http://www.w3.org/2000/svg" xmlns:xlink="http://www.w3.org/1999/xlink">
    <title>Artboard</title>
    <g id="Artboard" stroke="none" stroke-width="1" fill="none" fill-rule="evenodd">
        <path d="M30.7551,4.6817 C33.0891,4.8247 34.7341,5.8467 35.2861,7.4567 C35.7471,7.7927 36.0991,8.3747 36.3361,9.1987 C37.2371,12.3247 36.6631,20.3337 34.3101,27.6607 C35.5971,31.5067 37.4231,35.0357 39.7021,37.1837 C41.0391,38.4447 41.9561,38.1337 42.6791,37.6617 C46.2301,35.3417 48.9601,25.5657 49.9831,19.5577 C49.2851,13.9267 50.1631,13.4667 50.5751,13.2527 C51.0611,12.9967 51.6431,13.0947 52.0561,13.5027 C52.8871,14.3197 52.6971,17.0747 52.2711,19.7327 C52.9191,24.8027 54.5601,32.4137 57.2381,36.5957 C57.9371,37.6867 59.0341,39.0247 60.2951,39.2017 C63.3876714,39.6345571 64.6457122,35.9149245 65.4514965,31.4931344 L65.549964,30.9370032 C65.59812,30.6573586 65.6447344,30.3755328 65.6901445,30.0923682 L65.7794593,29.5245033 C65.7941108,29.4296448 65.8086536,29.3347 65.8231,29.2397 C66.2911,26.1617 66.5691,24.3077 68.2341,24.5367 C69.5341,24.7187 69.8241,26.1687 70.2611,28.3607 C71.2581,33.3507 72.5461,37.7967 77.8521,37.7267 C78.4611,37.7417 78.9811,38.2087 78.9932498,38.8267 C79.0031,39.4447 78.5111,39.9557 77.8931,39.9667 C70.4881,40.0897 68.9201,33.0627 68.1171,29.0577 C68.0891,29.2337 68.0631,29.4077 68.0371,29.5767 C67.3161,34.3287 66.1251,42.2737 59.9831,41.4197 C54.9831,40.7167 52.2531,31.5327 51.0061,25.6257 C50.1161,28.9897 48.1151,35.4097 45.1551,38.4837 C42.9351,40.7877 40.3881,40.9087 38.1661,38.8147 C36.1751,36.9377 34.4701,34.1007 33.1331,30.8827 C31.6761,34.4087 29.7551,37.5477 27.3321,39.5927 C24.4321,42.0397 21.0681,43.3137 17.9421,43.3137 C15.9631,43.3137 14.0791,42.8027 12.4681,41.7557 C8.0581,38.8887 6.7771,32.9487 8.9531,25.4577 C13.3081,10.4707 24.3181,4.2637 30.7551,4.6817 Z M1.8076,-0.0002 C2.8306,-0.0002 3.6636,0.8328 3.6636,1.8558 L3.6636,29.8738 L4.1795,43.1597 L1.1185,43.2787 L1.1036,30.2878 L-0.0004,1.8068 C-0.0004,0.8108 0.8106,-0.0002 1.8076,-0.0002 Z M30.2091,6.9047 C25.5291,6.9047 15.3691,11.4077 11.1051,26.0827 C9.2231,32.5587 10.1651,37.5867 13.6891,39.8787 C17.0101,42.0367 21.9131,41.2357 25.8881,37.8797 C28.4391,35.7277 30.4951,31.9497 31.9621,27.6837 C29.7331,20.7397 29.1481,12.9827 30.9011,9.3347 C31.3771,8.3417 31.9721,7.7727 32.5631,7.4567 C31.9521,7.0537 31.0811,6.9457 30.6171,6.9177 C30.4861,6.9087 30.3491,6.9047 30.2091,6.9047 Z M34.0011,9.3367 L33.9951,9.3367 C33.7251,9.3367 33.3231,9.4647 32.9201,10.3037 C31.7551,12.7287 31.9121,18.0967 33.1631,23.5647 C33.8601,20.7027 34.3011,17.7887 34.4601,15.1217 C34.6831,11.3867 34.2401,9.7587 34.0011,9.3367 Z M1.8076,1.1198 C1.4286,1.1198 1.1206,1.4278 1.1206,1.8068 L0.5606,1.8548 L1.1206,1.8338 L1.6466,15.4038 L2.5436,15.3868 L2.5436,1.8558 C2.5436,1.4498 2.2136,1.1198 1.8076,1.1198 Z M49.0301,5.4205 C49.5101,5.4205 52.9761,5.9655 52.9761,6.6365 C52.9761,7.3075 49.5101,7.8515 49.0301,7.8515 C48.5501,7.8515 48.1611,7.3075 48.1611,6.6365 C48.1611,5.9655 48.5501,5.4205 49.0301,5.4205 Z" id="Combined-Shape" fill="#000000"></path>
    </g>
</svg>