<?xml version="1.0" encoding="UTF-8"?>
<svg width="32px" height="32px" viewBox="0 0 32 32" version="1.1" xmlns="http://www.w3.org/2000/svg" xmlns:xlink="http://www.w3.org/1999/xlink">
    <title>Artboard</title>
    <g id="Artboard" stroke="none" stroke-width="1" fill="none" fill-rule="evenodd">
        <path d="M19,29 C19.5522847,29 20,29.4477153 20,30 C20,30.5522847 19.5522847,31 19,31 L1,31 C0.44771525,31 6.76353751e-17,30.5522847 0,30 C-6.76353751e-17,29.4477153 0.44771525,29 1,29 L19,29 Z M31,15 C31.5522847,15 32,15.4477153 32,16 C32,16.5522847 31.5522847,17 31,17 L1,17 C0.44771525,17 6.76353751e-17,16.5522847 0,16 C-6.76353751e-17,15.4477153 0.44771525,15 1,15 L31,15 Z M19,1 C19.5522847,1 20,1.44771525 20,2 C20,2.55228475 19.5522847,3 19,3 L1,3 C0.44771525,3 6.76353751e-17,2.55228475 0,2 C-6.76353751e-17,1.44771525 0.44771525,1 1,1 L19,1 Z" id="Combined-Shape" fill="#000000"></path>
    </g>
</svg>