<?xml version="1.0" encoding="UTF-8"?>
<svg width="32px" height="32px" viewBox="0 0 32 32" version="1.1" xmlns="http://www.w3.org/2000/svg" xmlns:xlink="http://www.w3.org/1999/xlink">
    <title>CloseButton</title>
    <g id="CloseButton" stroke="none" stroke-width="1" fill="none" fill-rule="evenodd">
        <path d="M4.6862915,4.6862915 C5.07681579,4.29576721 5.70998077,4.29576721 6.10050506,4.6862915 L6.10050506,4.6862915 L15.9993983,14.5853983 L25.8994949,4.6862915 C26.2900192,4.29576721 26.9231842,4.29576721 27.3137085,4.6862915 C27.7042328,5.07681579 27.7042328,5.70998077 27.3137085,6.10050506 L17.4143983,15.9993983 L27.3137085,25.8994949 C27.6741925,26.2599789 27.701922,26.82721 27.3968971,27.2195012 L27.3137085,27.3137085 C26.9231842,27.7042328 26.2900192,27.7042328 25.8994949,27.3137085 L25.8994949,27.3137085 L15.9993983,17.4143983 L6.10050506,27.3137085 C5.70998077,27.7042328 5.07681579,27.7042328 4.6862915,27.3137085 C4.29576721,26.9231842 4.29576721,26.2900192 4.6862915,25.8994949 L14.5853983,15.9993983 L4.6862915,6.10050506 C4.32580754,5.7400211 4.298078,5.17279005 4.60310289,4.78049884 Z" id="Combined-Shape" fill="#FFFFFF"></path>
    </g>
</svg>