<?xml version="1.0" encoding="UTF-8"?>
<svg width="81px" height="45px" viewBox="0 0 81 45" version="1.1" xmlns="http://www.w3.org/2000/svg" xmlns:xlink="http://www.w3.org/1999/xlink">
    <title>logo-black</title>
    <g id="logo-black" stroke="none" stroke-width="1" fill="none" fill-rule="evenodd">
        <g id="path-1-link" stroke-linecap="round" stroke-linejoin="round" transform="translate(45.047719, 27.051823) rotate(8.000000) translate(-45.047719, -27.051823) translate(10.405206, 8.085972)" stroke="#000000" stroke-width="2.24000005">
            <path d="M21.9087714,1.93612091 C20.2577546,-3.40828645 3.27069783,1.93612099 0.281890963,22.6736879 C-2.07197144,39.00575 10.8691798,41.734804 18.506214,33.2067174 C26.1432482,24.6786308 24.9303513,1.93612114 21.9087712,1.93612099 C15.7339857,1.93612068 21.7914522,24.5184803 30.6072927,30.7618594 C39.4231333,37.0052385 41.3486203,6.92808757 39.5256894,5.57736427 C37.7027584,4.22664087 44.4043496,30.0996715 51.9274079,30.0996715 C59.4504662,30.0996715 55.999123,14.4725708 57.7479015,14.4725708 C59.49668,14.4725708 59.9712369,27.6654628 69.2850261,26.181731" id="path-1"></path>
        </g>
        <g id="path-1-link" stroke-linecap="round" stroke-linejoin="round" transform="translate(45.047719, 27.051823) rotate(8.000000) translate(-45.047719, -27.051823) translate(10.405206, 8.085972)" stroke="#000000" stroke-width="3.13600007">
            <path d="M21.9087714,1.93612091 C20.2577546,-3.40828645 3.27069783,1.93612099 0.281890963,22.6736879 C-2.07197144,39.00575 10.8691798,41.734804 18.506214,33.2067174 C26.1432482,24.6786308 24.9303513,1.93612114 21.9087712,1.93612099 C15.7339857,1.93612068 21.7914522,24.5184803 30.6072927,30.7618594 C39.4231333,37.0052385 41.3486203,6.92808757 39.5256894,5.57736427 C37.7027584,4.22664087 44.4043496,30.0996715 51.9274079,30.0996715 C59.4504662,30.0996715 55.999123,14.4725708 57.7479015,14.4725708 C59.49668,14.4725708 59.9712369,27.6654628 69.2850261,26.181731" id="path-1"></path>
        </g>
        <path d="M49.5062106,8.023543 C49.986294,8.023543 53.4522293,7.4794446 53.4522293,6.80826522 C53.4522293,6.13708584 49.986294,5.59298744 49.5062106,5.59298744 C49.0261272,5.59298744 48.6369427,6.13708584 48.6369427,6.80826522 C48.6369427,7.4794446 49.0261272,8.023543 49.5062106,8.023543 Z" id="Oval-1" fill="#000000" fill-rule="nonzero"></path>
        <g id="path-2-link" stroke-linecap="square" transform="translate(1.036048, 0.731876)" fill="#000000" stroke="#000000" stroke-width="1.12000003">
            <path d="M0.0009362009,1.2953854 L1.56630919,41.6710352 L1.56630919,41.6710352 L1.56630919,41.6710352 C2.10595868,41.6710352 2.54343102,41.2335629 2.54343102,40.6939134 L2.54343102,1.2963586 L2.54343102,1.2963586 C2.54343102,0.580399517 1.96303151,0 1.24707242,0 L1.24707242,0 L1.24707242,0 C0.558333342,0 8.32667268e-17,0.558333342 8.32667268e-17,1.24707242 C8.32667268e-17,1.26318129 0.0003121255,1.27928864 0.0009362009,1.2953854 Z" id="path-2"></path>
        </g>
        <path d="M2.57147911,15.5876034 L2.57147911,41.4257897 C2.57147911,41.4087361 2.58530375,41.3949115 2.6023573,41.3949115 L2.6023573,42.4029115 L3.6096006,42.3638605 L2.57147911,15.5876034 Z" id="Path" stroke="#000000" stroke-width="2.01600005" stroke-linecap="square"></path>
    </g>
</svg>