<?xml version="1.0" encoding="UTF-8"?>
<svg width="81px" height="45px" viewBox="0 0 81 45" version="1.1" xmlns="http://www.w3.org/2000/svg" xmlns:xlink="http://www.w3.org/1999/xlink">
    <title>logo</title>
    <defs>
        <filter color-interpolation-filters="auto" id="filter-1">
            <feColorMatrix in="SourceGraphic" type="matrix" values="0 0 0 0 1.000000 0 0 0 0 1.000000 0 0 0 0 1.000000 0 0 0 1.000000 0"></feColorMatrix>
        </filter>
    </defs>
    <g id="myLogo" stroke="none" stroke-width="1" fill="none" fill-rule="evenodd">
        <g filter="url(#filter-1)" id="Artboard-Copy">
            <g transform="translate(1.036048, 0.731876)" id="Line-+-Oval-1-+-Shape-Copy-3">
                <g id="Line" stroke-linecap="round" stroke-linejoin="round" transform="translate(44.011671, 26.319947) rotate(8.000000) translate(-44.011671, -26.319947) translate(9.369158, 7.354096)" stroke="#000000">
                    <g id="path-1-link" stroke-width="2.24000005">
                        <path d="M21.9087714,1.93612091 C20.2577546,-3.40828645 3.27069783,1.93612099 0.281890963,22.6736879 C-2.07197144,39.00575 10.8691798,41.734804 18.506214,33.2067174 C26.1432482,24.6786308 24.9303513,1.93612114 21.9087712,1.93612099 C15.7339857,1.93612068 21.7914522,24.5184803 30.6072927,30.7618594 C39.4231333,37.0052385 41.3486203,6.92808757 39.5256894,5.57736427 C37.7027584,4.22664087 44.4043496,30.0996715 51.9274079,30.0996715 C59.4504662,30.0996715 55.999123,14.4725708 57.7479015,14.4725708 C59.49668,14.4725708 59.9712369,27.6654628 69.2850261,26.181731" id="path-1"></path>
                    </g>
                    <g id="path-1-link" stroke-width="3.13600007">
                        <path d="M21.9087714,1.93612091 C20.2577546,-3.40828645 3.27069783,1.93612099 0.281890963,22.6736879 C-2.07197144,39.00575 10.8691798,41.734804 18.506214,33.2067174 C26.1432482,24.6786308 24.9303513,1.93612114 21.9087712,1.93612099 C15.7339857,1.93612068 21.7914522,24.5184803 30.6072927,30.7618594 C39.4231333,37.0052385 41.3486203,6.92808757 39.5256894,5.57736427 C37.7027584,4.22664087 44.4043496,30.0996715 51.9274079,30.0996715 C59.4504662,30.0996715 55.999123,14.4725708 57.7479015,14.4725708 C59.49668,14.4725708 59.9712369,27.6654628 69.2850261,26.181731" id="path-1"></path>
                    </g>
                </g>
                <path d="M48.4701625,7.29166667 C48.9502459,7.29166667 52.4161812,6.74756827 52.4161812,6.07638889 C52.4161812,5.40520951 48.9502459,4.86111111 48.4701625,4.86111111 C47.9900791,4.86111111 47.6008946,5.40520951 47.6008946,6.07638889 C47.6008946,6.74756827 47.9900791,7.29166667 48.4701625,7.29166667 Z" id="Oval-1" fill="#000000" fill-rule="nonzero"></path>
                <g id="Shape" stroke-linecap="square" stroke="#000000">
                    <g id="path-2-link" fill="#000000" stroke-width="1.12000003">
                        <path d="M0.0009362009,1.2953854 L1.56630919,41.6710352 L1.56630919,41.6710352 L1.56630919,41.6710352 C2.10595868,41.6710352 2.54343102,41.2335629 2.54343102,40.6939134 L2.54343102,1.2963586 L2.54343102,1.2963586 C2.54343102,0.580399517 1.96303151,0 1.24707242,0 L1.24707242,0 L1.24707242,0 C0.558333342,0 8.32667268e-17,0.558333342 8.32667268e-17,1.24707242 C8.32667268e-17,1.26318129 0.0003121255,1.27928864 0.0009362009,1.2953854 Z" id="path-2"></path>
                    </g>
                    <path d="M1.535431,14.8557271 L1.535431,40.6939134 C1.535431,40.6768598 1.54925564,40.6630352 1.56630919,40.6630352 L1.56630919,41.6710352 L2.57355249,41.6319842 L1.535431,14.8557271 Z" id="Path" stroke-width="2.01600005"></path>
                </g>
            </g>
        </g>
    </g>
</svg>